<svg width="240" height="240" viewBox="0 0 240 240" fill="none" xmlns="http://www.w3.org/2000/svg">
<path d="M30 171.1V68.9C30.0003 67.7402 30.3367 66.6054 30.9685 65.6328C31.6003 64.6603 32.5005 63.8916 33.56 63.42L117.56 26.08C118.328 25.7381 119.159 25.5615 120 25.5615C120.841 25.5615 121.672 25.7381 122.44 26.08L206.44 63.42C207.5 63.8916 208.4 64.6603 209.032 65.6328C209.663 66.6054 210 67.7402 210 68.9V171.1C210 172.26 209.663 173.395 209.032 174.367C208.4 175.34 207.5 176.108 206.44 176.58L122.44 213.92C121.672 214.262 120.841 214.439 120 214.439C119.159 214.439 118.328 214.262 117.56 213.92L33.56 176.58C32.5005 176.108 31.6003 175.34 30.9685 174.367C30.3367 173.395 30.0003 172.26 30 171.1Z" fill="white" stroke="black" stroke-width="15" stroke-linecap="round" stroke-linejoin="round"/>
<path d="M26.9502 71.85L116.95 111.85L123.05 98.15L33.0502 58.15L26.9502 71.85ZM127.5 215V105H112.5V215H127.5ZM123.05 111.85L213.05 71.85L206.95 58.15L116.95 98.15L123.05 111.85Z" fill="black"/>
<path d="M75 45L161.44 83.42C162.5 83.8916 163.4 84.6603 164.032 85.6328C164.663 86.6054 165 87.7402 165 88.9V125" stroke="black" stroke-width="15" stroke-linecap="round" stroke-linejoin="round"/>
</svg>
